<svg xmlns="http://www.w3.org/2000/svg" xmlns:xlink="http://www.w3.org/1999/xlink" width="24" height="24"><defs><path id="a" d="M16.214 4.144c-1.062 1.308-1.594 2.632-1.594 3.974 0 .568.07 1.057.208 1.466.809-.613 1.686-.92 2.633-.92 1.294 0 2.374.403 3.24 1.21.866.808 1.299 1.893 1.299 3.258 0 1.273-.439 2.336-1.317 3.189-.877.853-1.951 1.279-3.222 1.279-1.824 0-3.222-.739-4.192-2.217-.808-1.228-1.212-2.763-1.212-4.605 0-2.342.606-4.44 1.819-6.293 1.212-1.853 3.043-3.348 5.49-4.485l.66 1.262c-1.479.614-2.75 1.575-3.812 2.882zm-12.057 0C3.095 5.452 2.564 6.776 2.564 8.118c0 .568.07 1.057.208 1.466.785-.613 1.663-.92 2.633-.92 1.27 0 2.344.403 3.222 1.21.877.808 1.316 1.893 1.316 3.258a4.31 4.31 0 0 1-.623 2.285 4.465 4.465 0 0 1-1.663 1.603 4.547 4.547 0 0 1-2.252.58c-1.825 0-3.222-.739-4.192-2.217C.404 14.155 0 12.62 0 10.778c0-2.342.606-4.44 1.819-6.293C3.032 2.632 4.862 1.137 7.31 0l.659 1.262C6.49 1.876 5.22 2.837 4.157 4.144z"/></defs><g fill="none" fill-rule="evenodd" transform="translate(1 3)"><mask id="b" fill="#fff"><use xlink:href="#a"/></mask><g fill="#ff385c" fill-opacity=".65" mask="url(#b)"><path d="M-1-3h24v24H-1z"/></g></g></svg>